<svg xmlns="http://www.w3.org/2000/svg" width="93" height="15"><path fill="#c92233" d="M80.973 4.057h11.835c-.03-.52-.229-1.738-1.709-2.885A8.2 8.2 0 0 0 88.994 0h-8.021zM11.836 4.057H0c.03-.52.23-1.738 1.709-2.885A8.2 8.2 0 0 1 3.815 0h8.02v4.057"/><path fill="#fb4a5c" d="M68.272 0q-.138.328-.28.678C73.306.645 78.644.62 83.953.434c.14-.172.27-.33.42-.434zm15.392 3.525a35 35 0 0 0 2.079-.615 6 6 0 0 1 1.16-1.54h.002q-1.079.207-2.168.384c-.447.538-.794 1.186-1.073 1.771M7.336.025c.296.176.587.58.936.837H8.27C7.923.606 7.63.201 7.336.024zm10.13 1.332c-3.046-.1-6.09-.248-9.13-.488zm-8.202.615-.015-.024zm-.015-.024-.003-.005zm-1.057.434.002.002zm.038.063.003.005zm-.003-.005.003.005zm.045.078q-.007-.01-.011-.019zM8.26 2.5zm.048.089L8.3 2.57zM8.3 2.57l-.009-.017zm66.544.468-.002.001c.21-.63.46-1.239.778-1.744h.001c-.317.505-.566 1.113-.777 1.743 2.51-.13 5.01-.334 7.525-.674v.003c-2.516.34-5.015.544-7.525.672zM8.349 2.662q.16.308.278.602zm2.498 1.222-.123-.03zm4.563.784a60 60 0 0 0 3.296.291v.001a60 60 0 0 1-3.296-.292m51.844-1.404h-.001zm-.343 1.878c-6.682.071-13.298.192-19.955.244v-.001c6.658-.053 13.272-.174 19.955-.243m17.875.28-.003.002.003-.001zM74.054 6.73c-2.418.177-4.867.194-7.357.23v-.002c2.49-.034 4.938-.051 7.357-.228m7.019.348q-.002.02-.008.04zm-53.404.037h.001a58 58 0 0 0-.208-1.891c-2.926-.065-5.849-.08-8.755-.261V4.96c2.905.182 5.83.197 8.755.261 6.52.023 12.994.138 19.492.162-6.497-.023-12.971-.136-19.49-.162q.12.94.208 1.892h.051-.053q.089.95.161 1.907h-.002q-.071-.956-.16-1.907zm.163 1.908c4.626.014 9.229.056 13.83.085zm55.27-2.733-.125.058c-.286 1.018-.536 2.13-1.057 3.052h-.001c.52-.922.769-2.034 1.056-3.052zm.03-.014-.03.014zM12.54 10.42l-.026-.015zm-.026-.015-.026-.015zm.081.048.007.004zm-.04-.025.04.025zm.137.08-.038-.021zm-.038-.021-.037-.022zm.098.057.003.001zm-.025-.016.025.016zm.094.054-.025-.014zm.057.032.009.005zm-.01-.005.01.005zm.234.127H13.1zm-.001 0h-.002zm58.108.033c-1.599.052-3.21.04-4.82.048zm-43.699.16.464.002zm-2.344.019c-1.902.019-3.822.033-5.708-.113zm-9.517.86h-.003zm.157.05-.017-.006zm.073.022-.015-.004zm.244.073-.018-.005zm-.018-.005-.019-.006zm.21.06-.164-.048zm.005 0 .057.016zm2.479.512c-.794-.115-1.58-.27-2.353-.477zm.063.01-.057-.009zm.067.009-.023-.003zm-.023-.003-.022-.003zm.173.024h.005zm.696.082-.108-.011zm53.64-.024c.153-.584.238-1.288.306-1.999.069-.71.118-1.428.198-2.037-2.431.198-4.901.188-7.395.211q-.084 1.013-.165 2.024h-.001q.071-.918.149-1.84c-6.55.044-13.053.12-19.57.155l.008-1.873q-.003.936-.008 1.87c6.518-.033 13.023-.109 19.57-.152q.01-.092.016-.184c2.494-.023 4.965-.013 7.394-.211 2.429-.2 4.817-.606 7.148-1.465v.001c-2.33.858-4.718 1.266-7.146 1.464-.157 1.22-.198 2.87-.502 4.036q-.118.014-.237.025zm-.252.027-.048.005zm-53.238.013-.101-.01zm.155.015-.104-.01zm.154.014q-.054-.003-.111-.01zm.156.014-.057-.005zm-.057-.005-.056-.004zm.101.01.112.008zm.268.02-.055-.004zm-.055-.004-.055-.004zm.365.026-.05-.003zm-.05-.003-.05-.004zm.201.013-.09-.006zm.1.006h.025zm-.027-.002.026.002zm.166.01.02.001zm49.823 1.933h.081q.019-.002.04-.002h.074l.037-.001.039-.001.036-.001.038-.002h.04l.036-.002q.018 0 .036-.002l.04-.001.036-.001.039-.002q.017 0 .035-.002.02 0 .042-.002l.032-.001.044-.003.03-.002.044-.003.033-.001.043-.003.03-.002q.023-.001.047-.004l.028-.001.051-.004q.01 0 .022-.002l.054-.004.021-.002.06-.005.014-.001.068-.007h.007a14.64 14.64 0 0 0 7.092-2.623c.167-.256.292-.566.41-.871-.117.305-.243.614-.408.87q.095-.067.19-.137l.017-.012.075-.056.039-.029.03-.023a15 15 0 0 0 1.828-1.628l.03-.03.041-.045.065-.07a15 15 0 0 0 .492-.559l.02-.023.065-.079q.484-.59.906-1.229a14.5 14.5 0 0 0 1.397-2.678l-.002.001.002-.002.001-.002q.184-.466.32-.948l.01-.032.008-.029.002-.008c.1-.339.291-.893.609-1.486a36 36 0 0 1-4.169 1.098c-.254.585-.318 1.251-.374 1.914h.002c-.033.391-.063.78-.128 1.15.17-.99.096-2.132.498-3.064h.002V4.01a38 38 0 0 0 2.089-.485c.28-.585.627-1.233 1.074-1.77l.001-.002a70 70 0 0 0 2.168-.385 8 8 0 0 1 .322-.278q.003 0 .004-.003l.016-.013q.007-.005.012-.01l.024-.018.01-.008a7 7 0 0 1 .665-.468l.002-.001.042-.025.002-.002a8 8 0 0 1 .913-.486l.041-.019.084-.037h-4.668c-.15.104-.281.262-.42.434q1.149-.042 2.293-.088l.15-.126c-.194.158-.392.349-.621.522.17-.13.322-.268.469-.395Q85.1.393 83.952.435c-5.309.187-10.647.211-15.96.244a9 9 0 0 0-.257.737c2.624-.032 5.245-.057 7.865-.119-2.62.064-5.242.088-7.866.12l-.001.002c-6.914.084-13.849.198-20.748.259q-.01.926-.017 1.854V3.53q.006-.93.015-1.854c-6.745-.014-13.554-.105-20.307-.12v.001c-3.072-.051-6.143-.1-9.21-.2 3.066.097 6.137.146 9.21.196 6.753.017 13.562.108 20.307.122 6.899-.06 13.835-.174 20.75-.26.15-.516.354-.978.536-1.416H4c.323.14.697.329 1.081.569h.002l.008.006.041.026.01.006c.333.211.673.463.997.761a112 112 0 0 0 1.521.263v-.002a72 72 0 0 1-1.522-.26q.157.147.298.302a5.4 5.4 0 0 1 .449.575l.011.018a7 7 0 0 1 .373.63q.682.218 1.373.408c.463.13.93.256 1.412.386a6.7 6.7 0 0 0-.693-1.563l.01.017c.307.509.544 1.062.683 1.546.148.51.258 1.034.359 1.565 2.794.886 5.652 1.323 8.539 1.553-2.887-.228-5.745-.665-8.54-1.552.1.531.19 1.069.297 1.6 2.66 1.215 5.497 1.738 8.391 1.966l.002.001c.048.68.102 1.357.186 2 .082.645.194 1.257.355 1.807a12 12 0 0 1-.356-1.806h-.001a36 36 0 0 1-.187-2c-2.893-.228-5.73-.752-8.391-1.967l-.05-.257c-.073-.38-.14-.763-.21-1.145-.11-.6-.228-1.192-.394-1.764q-.72-.193-1.41-.386v.002a36 36 0 0 1-1.373-.409c.31.6.485 1.162.575 1.505a10 10 0 0 0 .295.934l.016.044.001.001.001.001a14.8 14.8 0 0 0 4.306 5.942c-.304-.418-.499-.983-.738-1.42h.001c.24.437.435 1.003.74 1.421a14.7 14.7 0 0 0 5.057 2.736l.02.006q.022.008.047.014l.045.014.022.006.05.015.016.004.054.017.008.001a14.5 14.5 0 0 0 1.978.422l.008.001.059.008.012.002.057.007.015.002.057.008h.007l.18.023q.013 0 .025.003l.045.004.03.004.044.004.03.003.076.008q.02.001.041.004l.036.003.073.006.038.004.035.003q.02 0 .04.003l.036.003.043.003.077.005.033.003.057.003.018.001.076.005q.012 0 .025.002l.051.002.03.001.047.003h.032l.076.004.061.002.016.001.08.003h.01q.033 0 .066.002h.078l.028.001.05.001h.03l.052.001h6.601c-.127-.61-.167-1.234-.223-1.872a191 191 0 0 0-1.9.007c-1.56.01-3.118.02-4.655-.058v-.002c1.538.08 3.098.069 4.66.059a222 222 0 0 1 1.895-.007c.056.638.096 1.264.223 1.872h37.616c.132-.612.173-1.237.228-1.878h.002v.001h.002c-.057.64-.098 1.266-.23 1.878h5.259z"/></svg>